<svg xmlns="http://www.w3.org/2000/svg" viewBox="0 0 64 64">
  <!-- corpo do carro -->
  <path fill="#e11d2a" d="M5 39c0-2.1 1.5-3.8 3.6-4l7.4-.8 6.2-8.3C23.6 24.1 25.6 23 27.8 23h12.6c2.6 0 5 1.3 6.5 3.4L51.5 34l4.3 1c2.3.5 3.9 2.5 3.9 4.9v2.6c0 1.8-1.5 3.3-3.3 3.3H8.3C6.5 45.8 5 44.3 5 42.5z"/>
  <!-- janela -->
  <path fill="#ffdbdf" d="M26.4 26.5h9.1c1.4 0 2.7.7 3.6 1.8l3.4 4.4H23.5l3.1-5.4c.2-.5.5-.8.8-.8z"/>
  <!-- roda esquerda -->
  <circle cx="20" cy="46.5" r="7.5" fill="#1f2937"/>
  <circle cx="20" cy="46.5" r="3.2" fill="#e5e7eb"/>
  <!-- roda direita -->
  <circle cx="46" cy="46.5" r="7.5" fill="#1f2937"/>
  <circle cx="46" cy="46.5" r="3.2" fill="#e5e7eb"/>
</svg>
